<svg id="Layer_1" data-name="Layer 1" xmlns="http://www.w3.org/2000/svg" viewBox="0 0 64 64"><defs><style>.cls-1{fill:#0795ff;}.cls-2{fill:#156cdd;}.cls-3{fill:#dfe8f4;}.cls-4{fill:#ccd8e5;}.cls-5{fill:#fff;}</style></defs><title>medical, medicine, healthcare, health, bandage</title><rect class="cls-1" x="18.8" y="7.77" width="26.4" height="48.47" rx="6.01" transform="translate(77.25 32) rotate(135)"/><rect class="cls-2" x="20.77" y="20.77" width="26.4" height="26.4" transform="translate(-14.07 33.98) rotate(-45)"/><rect class="cls-3" x="18.8" y="7.77" width="26.4" height="48.47" rx="6.01" transform="translate(32 -13.25) rotate(45)"/><rect class="cls-4" x="23.21" y="23.21" width="17.59" height="17.59" rx="2.33" transform="translate(-13.25 32) rotate(-45)"/><circle class="cls-5" cx="31.59" cy="25.78" r="1.34"/><path class="cls-5" d="M36.25,29.09a1.34,1.34,0,1,1-1.34-1.34A1.34,1.34,0,0,1,36.25,29.09Z"/><circle class="cls-5" cx="38.22" cy="32.41" r="1.34"/><path class="cls-5" d="M30,28.68a1.34,1.34,0,1,1-1.34-1.34A1.34,1.34,0,0,1,30,28.68Z"/><circle class="cls-5" cx="32" cy="32" r="1.34"/><path class="cls-5" d="M36.66,35.32A1.34,1.34,0,1,1,35.32,34,1.34,1.34,0,0,1,36.66,35.32Z"/><circle class="cls-5" cx="25.78" cy="31.59" r="1.34"/><path class="cls-5" d="M30.43,34.91a1.34,1.34,0,1,1-1.34-1.34A1.34,1.34,0,0,1,30.43,34.91Z"/><circle class="cls-5" cx="32.41" cy="38.22" r="1.34"/></svg>