<svg xmlns="http://www.w3.org/2000/svg" width="128" height="128" viewBox="0 0 128 128">
  <title>COVID-19</title>
  <g>
    <g>
      <path d="M64,23.911a2.985,2.985,0,0,0-1.75,5.407V34.25a1.75,1.75,0,0,0,3.5,0V29.318A2.985,2.985,0,0,0,64,23.911Z" fill="#e60c3b"/>
      <path d="M85.036,44.714a1.741,1.741,0,0,0,1.237-.513l3.488-3.487a2.991,2.991,0,1,0-2.475-2.475L83.8,41.727a1.75,1.75,0,0,0,1.237,2.987Z" fill="#e60c3b"/>
      <path d="M101.1,61.009a2.979,2.979,0,0,0-2.416,1.241H93.75a1.75,1.75,0,0,0,0,3.5h4.932a2.988,2.988,0,1,0,2.416-4.741Z" fill="#e60c3b"/>
      <path d="M89.761,87.286,86.273,83.8A1.749,1.749,0,0,0,83.8,86.273l3.487,3.488a2.991,2.991,0,1,0,2.475-2.475Z" fill="#e60c3b"/>
      <path d="M65.75,98.682V93.75a1.75,1.75,0,0,0-3.5,0v4.932a2.991,2.991,0,1,0,3.5,0Z" fill="#e60c3b"/>
      <path d="M41.727,83.8l-3.488,3.487a2.991,2.991,0,1,0,2.475,2.475L44.2,86.273A1.749,1.749,0,0,0,41.727,83.8Z" fill="#e60c3b"/>
      <path d="M36,64a1.749,1.749,0,0,0-1.75-1.75H29.318a2.991,2.991,0,1,0,0,3.5H34.25A1.749,1.749,0,0,0,36,64Z" fill="#e60c3b"/>
      <path d="M40.714,38.239a2.991,2.991,0,1,0-2.475,2.475L41.727,44.2A1.749,1.749,0,0,0,44.2,41.727Z" fill="#e60c3b"/>
    </g>
    <circle cx="64" cy="64" r="29.75" fill="#f8495d"/>
    <g>
      <path d="M50.284,57.576a6.746,6.746,0,0,0,9.541,0l-9.541-9.54A6.747,6.747,0,0,0,50.284,57.576Z" fill="#dee1f3"/>
      <path d="M77.716,57.576a6.746,6.746,0,0,1-9.541,0l9.541-9.54A6.747,6.747,0,0,1,77.716,57.576Z" fill="#dee1f3"/>
    </g>
    <g>
      <path d="M90.07,79.75a12.146,12.146,0,0,1-2.4-.237,1.75,1.75,0,0,1,.693-3.43,8.719,8.719,0,0,0,1.706.167c3.125,0,5.766-1.656,5.766-3.617,0-1.249-1.152-2.479-2.937-3.134a1.75,1.75,0,1,1,1.2-3.285c3.227,1.183,5.232,3.643,5.232,6.419C99.336,76.624,95.266,79.75,90.07,79.75Z" fill="#dee1f3"/>
      <path d="M37.93,79.75c-5.2,0-9.266-3.126-9.266-7.117,0-2.776,2-5.236,5.232-6.419A1.75,1.75,0,0,1,35.1,69.5c-1.785.655-2.937,1.885-2.937,3.134,0,1.961,2.641,3.617,5.766,3.617a8.719,8.719,0,0,0,1.706-.167,1.75,1.75,0,0,1,.693,3.43A12.146,12.146,0,0,1,37.93,79.75Z" fill="#dee1f3"/>
    </g>
    <path d="M88.015,64.5V83.493L74.6,90.009C64,95,64,95,53.4,90.009L39.985,83.493V64.5l17.1-4.129a29.6,29.6,0,0,1,13.824,0Z" fill="#95edf7"/>
    <path d="M88.018,78.374,74.492,81.843a42.242,42.242,0,0,1-20.984,0L39.982,78.374V68.808l17-1.981a39.824,39.824,0,0,1,14.036,0l17,1.981Z" fill="#52e1f3"/>
  </g>
</svg>
