<?xml version="1.0" encoding="utf-8"?>
<!-- Generator: Adobe Illustrator 27.5.0, SVG Export Plug-In . SVG Version: 6.00 Build 0)  -->
<svg version="1.1" xmlns="http://www.w3.org/2000/svg" xmlns:xlink="http://www.w3.org/1999/xlink" x="0px" y="0px"
	 viewBox="0 0 750 500" style="enable-background:new 0 0 750 500;" xml:space="preserve">
<g id="BACKGROUND">
	<rect y="420.463" style="fill:#D2DAE5;" width="750" height="79.537"/>
	<rect style="fill:#D6E6FD;" width="750" height="420.463"/>
</g>
<g id="OBJECTS">
	<ellipse style="opacity:0.17;fill:#0E153F;" cx="673.088" cy="437.905" rx="45.274" ry="7.013"/>
	<ellipse style="opacity:0.17;fill:#0E153F;" cx="540.928" cy="437.905" rx="62.415" ry="7.013"/>
	<ellipse style="opacity:0.17;fill:#0E153F;" cx="396.426" cy="437.905" rx="62.415" ry="7.013"/>
	<g>
		<rect x="48.442" y="64.428" style="fill:#FEFFFF;" width="61.852" height="79.904"/>
		<g>
			<circle style="fill:#9DD4FD;" cx="79.368" cy="80.401" r="7.889"/>
			<rect x="78.229" y="75.997" style="fill:#FEFFFF;" width="2.277" height="8.808"/>
			
				<rect x="78.229" y="75.997" transform="matrix(-1.836970e-16 1 -1 -1.836970e-16 159.7689 1.0336)" style="fill:#FEFFFF;" width="2.277" height="8.808"/>
		</g>
		<rect x="55.216" y="95.108" style="fill:#9DD4FD;" width="46.217" height="3.696"/>
		<rect x="55.216" y="105.623" style="fill:#9DD4FD;" width="46.217" height="3.696"/>
		<rect x="55.216" y="116.138" style="fill:#9DD4FD;" width="46.217" height="3.696"/>
		<rect x="55.216" y="126.653" style="fill:#9DD4FD;" width="46.217" height="3.696"/>
	</g>
	<g>
		<rect x="130.405" y="64.428" style="fill:#FEFFFF;" width="61.852" height="79.904"/>
		<g>
			<circle style="fill:#9DD4FD;" cx="161.331" cy="80.401" r="7.889"/>
			<rect x="160.193" y="75.997" style="fill:#FEFFFF;" width="2.277" height="8.808"/>
			
				<rect x="160.193" y="75.997" transform="matrix(-1.836970e-16 1 -1 -1.836970e-16 241.7322 -80.9297)" style="fill:#FEFFFF;" width="2.277" height="8.808"/>
		</g>
		<rect x="137.179" y="95.108" style="fill:#9DD4FD;" width="46.217" height="3.696"/>
		<rect x="137.179" y="105.623" style="fill:#9DD4FD;" width="46.217" height="3.696"/>
		<rect x="137.179" y="116.138" style="fill:#9DD4FD;" width="46.217" height="3.696"/>
		<rect x="137.179" y="126.653" style="fill:#9DD4FD;" width="46.217" height="3.696"/>
	</g>
	<g>
		<path style="fill:#6D3744;" d="M182.73,150.6l-24.47,34.28c-0.56-0.08-1.1-0.17-1.64-0.27c-23.54-4.16-26.98-20.82-24.29-37.87
			c0.24-1.53,0.62-3.03,1.1-4.47c5.07-14.95,22.43-24.64,31.64-22c6.97,2,3.35,6.87,0.44,9.68c5.29-4.34,17.79-13.45,23.73-7.99
			c7.47,6.88-2.29,16.09-2.74,16.51C194.73,134.83,191.67,144,182.73,150.6z"/>
		<path style="fill:#542633;" d="M159.36,182.41c-0.96,0.76-1.87,1.51-2.74,2.2c-23.54-4.16-26.98-20.82-24.29-37.87
			c0.24-1.53,0.62-3.03,1.1-4.47l3.36-1.88c-0.29,11.61,4.61,0.72,11.14,1.45C154.46,142.57,166.07,177.07,159.36,182.41z"/>
		<g>
			<path style="fill:#434A8E;" d="M177.289,193.971c9.614,3.499,18.807,14.364,17.415,26.065
				c-1.393,11.701-3.622,34.546-3.622,34.546h-74.108l1.672-26.54l22.571-30.295L177.289,193.971z"/>
			<rect x="140.356" y="220.514" style="fill:#55A9D5;" width="17.977" height="4.994"/>
			<path style="opacity:0.42;fill:#0E153F;" d="M142.964,211.257c-3.079,24.539,19.854,27.057,33.956,17.955
				c14.102-9.102,7.741,25.371,5.902,25.371c-1.839,0-67.721-4.583-67.721-4.583L142.964,211.257z"/>
			<path style="fill:#434A8E;" d="M154.855,189.872c-15.709,1.337-23.232,1.306-36.424,23.293
				c-13.192,21.987-20.296,35.518-18.605,40.93c1.691,5.412,47.695,2.029,47.695,2.029v-16.575l-19.914-0.677L154.855,189.872z"/>
			<g>
				<path style="fill:#F4B8AB;" d="M143.078,191.088l10.207,7.312c5.998,4.297,14.151,3.956,19.769-0.825l4.234-3.604
					C177.289,193.971,167.591,185.805,143.078,191.088z"/>
				<path style="fill:#F4B8AB;" d="M182.73,150.598c1.446,21.205-1.928,30.602-13.976,31.807v4.94
					c0.355,8.861-2.967,6.627-6.626,6.627l0,0c-3.66,0-6.627-2.967-6.627-6.627v-4.94c0,0-9.639-4.096-11.566-10.12
					c-1.928-6.024,0-0.964,0-0.964l-0.857-24.578h39.965L182.73,150.598z"/>
				<path style="fill:#F4B8AB;" d="M144.542,162.085c-3.03-5.525-6.595-3.208-7.308,0c-0.713,3.208,5.704,11.019,7.308,8.272
					C146.146,167.61,144.542,162.085,144.542,162.085z"/>
				<g>
					<path style="fill:#191918;" d="M159.36,163.509c-0.733,0-1.105-0.909-1.105-2.702s0.371-2.703,1.105-2.703
						c0.733,0,1.104,0.91,1.104,2.703S160.093,163.509,159.36,163.509z"/>
				</g>
				<g>
					<path style="fill:#191918;" d="M172.384,163.509c-0.733,0-1.105-0.909-1.105-2.702s0.371-2.703,1.105-2.703
						c0.733,0,1.104,0.91,1.104,2.703S173.118,163.509,172.384,163.509z"/>
				</g>
				<path style="fill:none;stroke:#E56A85;stroke-linecap:round;stroke-miterlimit:10;" d="M167.591,172.26
					c-6.238,0.143-11.076-4.348-11.076-4.348"/>
				<path style="opacity:0.53;fill:#DD6595;" d="M168.754,182.405c-5.337,0.48-11.526,0.285-11.526,0.285l11.526,4.655V182.405z"/>
				<path style="opacity:0.53;fill:#DD6595;" d="M144.22,163.567c-2.701-2.835-4.028-1.671-3.847,1.276
					c0.181,2.947,3.732,5.059,4.883,4.214C146.405,168.212,144.22,163.567,144.22,163.567z"/>
				<path style="fill:#FCF3F2;" d="M143.497,158.754c0,0,4.039,3.753,7.341,6.089c3.303,2.337,12.423-0.882,15.569-0.766
					c3.145,0.115,9.996,2.99,16.399,0.766c0,0,1.214,19.006-18.129,19.006c-19.343,0-21.705-13.031-21.705-13.031v-0.731
					c0,0,2.204,5.113,5.507,4.955c3.302-0.157,0.243-11.331-4.911-14.236L143.497,158.754z"/>
			</g>
			<path style="fill:#F4B8AB;" d="M144.596,245.482c5.992-0.4,9.988-4.994,13.583-2.996c3.596,1.998,6.641,8.414,4.719,12.097
				h-18.301V245.482z"/>
			<g>
				<path style="fill:#4D94CE;" d="M168.329,245.508l8.809-35.684c1.741-7.054,8.07-12.01,15.335-12.01h61.108
					c4.284,0,7.419,4.037,6.359,8.188l-12.072,44.153c-0.643,2.35-2.81,3.956-5.245,3.886l-69.319-1.989
					C169.939,251.956,167.522,248.777,168.329,245.508z"/>
				<path style="fill:#58AEDD;" d="M172.997,245.104l8.647-35.025c1.778-7.203,8.241-12.264,15.661-12.264h60.846
					c4.284,0,7.419,4.037,6.517,7.608l-12.002,43.899c-0.842,3.079-3.146,4.786-5.737,4.712l-68.64-1.969
					C174.709,251.961,172.138,248.581,172.997,245.104z"/>
				<path style="fill:#4D94CE;" d="M232.493,256.456h-83.005c-1.268,0-2.296-1.028-2.296-2.296l0,0c0-1.268,1.028-2.296,2.296-2.296
					h83.005c1.268,0,2.296,1.028,2.296,2.296l0,0C234.788,255.428,233.761,256.456,232.493,256.456z"/>
				<path style="fill:#7DD0F4;" d="M252.06,256.456h-83.005c-1.268,0-2.296-1.028-2.296-2.296l0,0c0-1.268,1.028-2.296,2.296-2.296
					h83.005c1.268,0,2.296,1.028,2.296,2.296l0,0C254.356,255.428,253.328,256.456,252.06,256.456z"/>
				<path style="fill:#7DD0F4;" d="M224.305,225.857c-0.605,3.311-2.923,5.661-5.176,5.249c-2.254-0.412-3.591-3.429-2.986-6.74
					c0.605-3.311,2.923-5.661,5.176-5.249C223.574,219.528,224.91,222.546,224.305,225.857z"/>
			</g>
		</g>
		<path style="fill:#6D3744;" d="M142.974,143.989c0.625,14.414,26.661,11.013,36.292,4.589c9.632-6.424-1.762-15.602-16.803-12.543
			C147.421,139.094,142.709,137.865,142.974,143.989z"/>
	</g>
	<g>
		<polygon style="fill:#B7E7F7;" points="311.712,270.136 0,270.136 0,257.17 319.158,257.17 		"/>
		<rect y="270.136" style="fill:#434A8E;" width="311.712" height="9.55"/>
		<rect y="412.22" style="fill:#434A8E;" width="311.712" height="9.55"/>
		<rect y="279.686" style="fill:#B7E7F7;" width="311.712" height="132.537"/>
	</g>
	<g>
		<g>
			<rect x="543.083" y="16.682" style="fill:#FEFFFF;" width="130.33" height="130.33"/>
			<g>
				
					<line style="fill:none;stroke:#D6E6FD;stroke-width:2;stroke-miterlimit:10;" x1="608.248" y1="16.682" x2="608.248" y2="147.012"/>
			</g>
			<g>
				
					<line style="fill:none;stroke:#D6E6FD;stroke-width:2;stroke-miterlimit:10;" x1="673.414" y1="81.847" x2="543.083" y2="81.847"/>
			</g>
		</g>
	</g>
	<polygon style="fill:#FEFFFF;" points="253.558,39.692 59.111,39.692 69.111,22.99 243.558,22.99 	"/>
	<g>
		<g>
			<rect x="93.109" style="fill:#FEFFFF;" width="6.006" height="22.99"/>
			<rect x="213.555" style="fill:#FEFFFF;" width="6.006" height="22.99"/>
		</g>
	</g>
	<g>
		<path style="fill:#434A8E;" d="M350.908,236.422c-1.738,29.548,5.541,174.968,5.541,174.968h26.903
			c0,0,8.798-128.599,8.698-174.968H350.908z"/>
		<path style="fill:#434A8E;" d="M426.762,236.422c1.738,29.548-0.464,174.968-0.464,174.968h-26.903
			c0,0-8.798-128.599-8.698-174.968H426.762z"/>
		<path style="opacity:0.42;fill:#0E153F;" d="M383.863,352.592c-9.152,14.143-29.144,22.058-29.144,22.058l-0.755-24.216
			L383.863,352.592z"/>
		<path style="opacity:0.42;fill:#0E153F;" d="M396.86,352.59c6.009,8.711,29.955,19.094,29.955,19.094l0.205-19.094H396.86z"/>
		<path style="fill:#161B43;" d="M378.825,411.389l1.909,22.304c0,0-39.419,10.131-41.035,0
			c-1.241-7.781,22.585-7.392,22.267-22.304H378.825z"/>
		<path style="fill:#161B43;" d="M403.759,411.389l-1.909,22.304c0,0,39.419,10.131,41.034,0
			c1.241-7.781-22.585-7.392-22.267-22.304H403.759z"/>
		<path style="fill:#6D3744;" d="M411.304,95.846c7.1-6.563,6.159-15.975,2.394-18.171c0,0,1.945-14.465-13.349-16.417
			c-15.591-1.99-38.072,7.593-37.284,27.342c0.187,4.689,0.721,9.752-1.765,13.732c-2.985,4.779-9.202,6.231-14.803,6.842
			c-5.601,0.611-11.693,0.983-15.946,4.678c-3.286,2.855-4.854,7.27-5.269,11.603c-0.478,5.001,0.472,10.237,3.267,14.411
			c2.795,4.174,7.56,7.137,12.583,7.163c5.037,0.025,7.328-0.392,8.642,4.603c1.318,5.009,3.197,6.192,8.709,7.294
			c17.255,3.451,48.626-19.451,48.626-19.451S421.458,113.703,411.304,95.846z"/>
		<path style="fill:#542633;" d="M416.59,127.88c-1.92,3.52-5.1,7.06-8.87,10.42c-1.77,1.58-3.68,3.13-5.65,4.62
			c0,0-0.01,0-0.02,0.01c-9.58,6.26-30.57,18.6-43.57,16c-5.51-1.1-7.39-2.29-8.71-7.3c-1.31-4.99-3.6-4.57-8.64-4.6
			c-5.02-0.02-9.79-2.99-12.58-7.16c-2.8-4.18-3.75-9.41-3.27-14.41c0.42-4.34,1.99-8.75,5.27-11.61
			c4.25-3.69,10.35-4.06,15.95-4.67c1.59-0.18,3.24-0.42,4.85-0.79c-15.5,15.95,13.74,13.22,18.68,6.84
			c4.95-6.37-10.12-14.72-1.97-28.31c8.16-13.59,43.24,8.93,43.24,8.93s0.01,0.01,0.02,0.03
			C411.95,96.63,424.89,112.66,416.59,127.88z"/>
		<polygon style="fill:#161B43;" points="384.882,120.076 396.855,120.076 396.855,238.364 375,238.364 		"/>
		<g>
			<path style="fill:#F4B8AB;" d="M303.203,143.403c-0.978-7.504-0.707-13.098-3.575-14.982c-2.526-1.659-0.999,5.574-0.999,5.574
				s-8.426-9.614-12.569-9.56c-4.143,0.054,2.117,3.756,2.117,3.756s-5.754-4.055-7.196-2.504c-0.785,0.845,4.222,5.068,4.222,5.068
				s-4.303-2.734-5.295-1.738s3.595,6.506,3.595,6.506s-3.327-2.899-3.876-1.606c-0.549,1.293,17.611,16.727,17.611,16.727
				L303.203,143.403z"/>
			<path style="fill:none;stroke:#E56A85;stroke-linecap:round;stroke-miterlimit:10;" d="M290.397,135.604
				c4.836,1.675,7.346,5.188,7.346,5.188"/>
		</g>
		<g>
			<path style="fill:#F4B8AB;" d="M411.575,84.053c1.417,20.787-1.89,30-13.701,31.181v4.843c0,3.588-2.908,6.496-6.496,6.496l0,0
				c-3.588,0-6.496-2.908-6.496-6.496v-4.843c0,0-9.449-4.016-11.339-9.921c-1.89-5.905,0-0.945,0-0.945l-0.84-24.094h39.179
				L411.575,84.053z"/>
			<path style="fill:#F4B8AB;" d="M374.138,95.313c-2.971-5.417-6.465-3.145-7.164,0c-0.699,3.145,5.591,10.802,7.164,8.109
				C375.711,100.73,374.138,95.313,374.138,95.313z"/>
			<g>
				<path style="fill:#191918;" d="M388.664,96.71c-0.719,0-1.083-0.891-1.083-2.649s0.364-2.65,1.083-2.65
					c0.718,0,1.082,0.892,1.082,2.65S389.383,96.71,388.664,96.71z"/>
			</g>
			<g>
				<path style="fill:#191918;" d="M401.432,96.71c-0.719,0-1.083-0.891-1.083-2.649s0.364-2.65,1.083-2.65
					c0.719,0,1.083,0.892,1.083,2.65S402.151,96.71,401.432,96.71z"/>
			</g>
			<path style="fill:none;stroke:#E56A85;stroke-linecap:round;stroke-miterlimit:10;" d="M396.733,105.288
				c-6.115,0.141-10.857-4.263-10.857-4.263"/>
			<path style="opacity:0.53;fill:#DD6595;" d="M397.874,115.234c-5.232,0.47-11.299,0.279-11.299,0.279l11.299,4.564V115.234z"/>
			<path style="opacity:0.53;fill:#DD6595;" d="M373.822,96.766c-2.648-2.78-3.949-1.638-3.772,1.251
				c0.177,2.889,3.659,4.959,4.787,4.131C375.965,101.32,373.822,96.766,373.822,96.766z"/>
			<path style="fill:#FCF3F2;" d="M373.114,92.048c0,0,3.96,3.679,7.197,5.969c3.238,2.291,12.179-0.864,15.262-0.751
				s9.799,2.932,16.077,0.751c0,0,1.19,18.632-17.772,18.632c-18.962,0-21.277-12.774-21.277-12.774v-0.717
				c0,0,2.161,5.012,5.398,4.858c3.237-0.154,0.238-11.108-4.814-13.956L373.114,92.048z"/>
		</g>
		<path style="fill:#6D3744;" d="M404.421,74.199c-6.637,12.588-28.636,18.538-33.543,16.021
			c-4.907-2.518-5.267-11.672,7.615-16.021C391.376,69.85,404.421,74.199,404.421,74.199z"/>
		<path style="fill:#6D3744;" d="M400.349,73.19c3.156,12.452,8.08,15.681,11.225,10.862c3.146-4.819-0.41-11.43-5.613-11.786
			C400.759,71.91,400.349,73.19,400.349,73.19z"/>
		<polygon style="fill:#FFFEFF;" points="383.863,138.241 383.863,352.592 344.386,352.592 352.766,174.488 		"/>
		<polygon style="fill:#FFFEFF;" points="436.33,352.59 396.86,352.59 396.86,138.24 425.15,158.32 428.14,210.21 428.14,210.23 
			429.04,225.93 		"/>
		<path style="opacity:0.39;fill:#BDD2F4;" d="M429.04,225.93c-19.2,7.45-29.89,1.81-32.18-8.13v-41.34l22.5-12.95l8.78,46.7v0.02
			L429.04,225.93z"/>
		<path style="fill:#FFFEFF;" d="M384.882,120.076c-23.783-0.663-31.494,12.304-50.684,41.507l-28.359-22.338
			c0,0-10.554,4.397-10.163,11.277c0,0,31.034,45.124,44.593,45.908c13.559,0.783,43.594-58.188,43.594-58.188L384.882,120.076z"/>
		<path style="fill:#FFFEFF;" d="M396.855,119.665c16.238-0.593,33.224,7.34,36.628,28.07c3.404,20.73,2.849,28.995,2.849,28.995
			l-39.477-38.488V119.665z"/>
		<path style="fill:#55A9D5;" d="M462.92,151.46l-7.63,42.57l-4.03,22.52c-0.24,1.33-1.39,2.29-2.74,2.29h-45
			c-1.68,0-2.98-1.48-2.76-3.15l8.54-65.08c0.18-1.39,1.36-2.43,2.76-2.43h48.12C461.91,148.18,463.22,149.75,462.92,151.46z"/>
		<path style="opacity:0.44;fill:#434A8E;" d="M455.29,194.03l-4.03,22.52c-0.24,1.33-1.39,2.29-2.74,2.29h-0.02
			c-2.04-5.83-4.65-15.07-3.91-22.51L455.29,194.03z"/>
		<path style="fill:#F4B8AB;" d="M457.024,182.489c7.354,4.379,2.023,17.166-0.583,20.213c-2.606,3.047-8.94,2.003-9.154-0.377
			c-0.214-2.381,1.972-2.097,1.972-2.097s-4.759-2.212-4.671-3.9c0.088-1.688,4.592-2.308,4.592-2.308s-3.542-2.022-2.96-3.557
			c0.582-1.534,5-0.449,5-0.449s-2.941-3.343-2.086-4.518c0.854-1.174,6.43,0.553,6.43,0.553L457.024,182.489z"/>
		<path style="fill:#0E153F;" d="M425.2,148.382L425.2,148.382c-0.278,1.133,0.579,2.226,1.746,2.226h21.953
			c0.797,0,1.499-0.525,1.724-1.29l0,0c0.339-1.151-0.524-2.305-1.724-2.305h-21.953C426.118,147.012,425.398,147.578,425.2,148.382
			z"/>
		<rect x="360.446" y="156.942" style="fill:#434A8E;" width="16.089" height="4.641"/>
		<polygon style="opacity:0.39;fill:#BDD2F4;" points="352.042,189.872 370.035,172.263 352.042,204.583 		"/>
	</g>
	<g>
		<path style="fill:#58AEDD;" d="M501.94,216.971c-1.738,32.832,5.541,194.418,5.541,194.418h26.903
			c0,0,8.798-142.895,8.698-194.418H501.94z"/>
		<path style="fill:#58AEDD;" d="M578.414,216.971c1.738,32.832-1.084,194.418-1.084,194.418h-26.903
			c0,0-17.867-142.895-17.767-194.418H578.414z"/>
		<path style="fill:#434A8E;" d="M529.857,411.389l1.909,22.304c0,0-39.419,10.131-41.034,0
			c-1.241-7.781,22.585-7.392,22.267-22.304H529.857z"/>
		<path style="fill:#434A8E;" d="M554.791,411.389l-1.909,22.304c0,0,39.419,10.131,41.034,0
			c1.241-7.781-22.585-7.392-22.267-22.304H554.791z"/>
		<path style="fill:#434A8E;" d="M522.378,117.655c-17.049,2.181-22.833,9.021-25.988,20.587
			c-3.155,11.565-6.835,93.079-6.835,93.079h12.117L522.378,117.655z"/>
		<path style="opacity:0.42;fill:#0E153F;" d="M510.074,184.479c-1.64,23.363-19.27,21.956-19.27,21.956l-1.249,24.885h12.117
			L510.074,184.479z"/>
		<path style="fill:#434A8E;" d="M540.07,117.335l-17.693,0.32l-14.895,16.54l-5.81,82.776h76.742c0,0-0.241-75.172-3.681-86.619
			C571.294,118.905,540.07,117.335,540.07,117.335z"/>
		<path style="opacity:0.42;fill:#0E153F;" d="M554.918,136.708c2.855,23.869-34.049,37.78-34.049,37.78l-11.511,14.645
			c0,0,14.296,10.539,37.398,11.606c23.102,1.066-1.655,16.233-23.235,16.233h54.894l-1.649-68.161L554.918,136.708z"/>
		<path style="fill:#F4B8AB;" d="M494.176,231.32c-1.741,9.71-1.741,14.235,2.089,15.627c3.829,1.392,5.539,0,5.539,0l-0.132-15.627
			H494.176z"/>
		<path style="fill:#F4B8AB;" d="M524.603,176.73c-6.305-4.951-14.155-4.205-17.121-2.242s-10.34,5.234-11.696,6.28
			c-1.356,1.047,3.32,2.98,5.886,1.318c2.565-1.662,5.81-1.318,5.81-1.318s-1.642,5.104,1.875,8.364c3.516,3.26,15.246,0,15.246,0
			V176.73z"/>
		<path style="fill:#434A8E;" d="M540.07,117.335c28.879-4.86,40.008,8.289,43.688,23.458c3.681,15.168,9.378,42.448,4.12,48.34
			c-5.258,5.892-63.275,0-63.275,0V176.73l38.856-11.533l-8.542-28.489L540.07,117.335z"/>
		<path style="fill:#55A9D5;" d="M524.603,117.335c-3.607,10.313,1.103,15.023,1.103,15.023l7.942-5.684l8.46,5.684
			c0,0,4.875-6.912,0.976-15.473C543.083,116.884,532.919,113.03,524.603,117.335z"/>
		<path style="fill:#6D3744;" d="M511.9,93.097c-6.802-8.124-4.903-16.592,0-20.069c0,0-2.9-7.609,6.724-17.248
			c9.624-9.639,9.104,2.479,9.104,2.479s6.243-3.856,15.607-3.58c9.364,0.275,3.52,6.61,3.52,6.61s12.607,0.551,17.289,13.22
			c4.682,12.669-8.979,34.036-18.666,34.92C535.792,110.31,511.9,93.097,511.9,93.097z"/>
		<g>
			<path style="fill:#F4B8AB;" d="M513.378,81.311c-1.417,20.787,1.89,30,13.701,31.181v4.842c0,3.588,2.908,6.496,6.496,6.496l0,0
				c3.588,0,6.496-2.908,6.496-6.496v-4.842c0,0,9.449-4.016,11.339-9.921c1.89-5.905,0-0.945,0-0.945l0.84-24.094H513.07
				L513.378,81.311z"/>
			<path style="fill:#F4B8AB;" d="M550.814,92.572c2.971-5.417,6.465-3.145,7.164,0c0.699,3.145-5.591,10.802-7.164,8.109
				C549.242,97.989,550.814,92.572,550.814,92.572z"/>
			<g>
				<path style="fill:#191918;" d="M536.288,93.968c0.719,0,1.083-0.891,1.083-2.649s-0.364-2.65-1.083-2.65
					c-0.718,0-1.082,0.892-1.082,2.65S535.57,93.968,536.288,93.968z"/>
			</g>
			<g>
				<path style="fill:#191918;" d="M523.52,93.968c0.719,0,1.083-0.891,1.083-2.649s-0.364-2.65-1.083-2.65
					c-0.719,0-1.083,0.892-1.083,2.65S522.801,93.968,523.52,93.968z"/>
			</g>
			<path style="fill:none;stroke:#E56A85;stroke-linecap:round;stroke-miterlimit:10;" d="M528.219,102.547
				c6.115,0.141,10.857-4.263,10.857-4.263"/>
			<path style="opacity:0.53;fill:#DD6595;" d="M527.078,112.492c5.232,0.47,11.299,0.279,11.299,0.279l-11.299,4.564V112.492z"/>
			<path style="opacity:0.53;fill:#DD6595;" d="M551.13,94.025c2.648-2.78,3.949-1.638,3.772,1.251
				c-0.177,2.889-3.659,4.959-4.787,4.131C548.988,98.579,551.13,94.025,551.13,94.025z"/>
			<path style="fill:#FCF3F2;" d="M551.838,89.307c0,0-3.959,3.679-7.197,5.969c-3.237,2.29-12.179-0.865-15.262-0.752
				c-3.083,0.113-9.799,2.932-16.077,0.752c0,0-1.19,18.632,17.773,18.632c18.962,0,21.277-12.774,21.277-12.774v-0.716
				c0,0-2.161,5.012-5.398,4.858c-3.237-0.154-0.238-11.108,4.814-13.956L551.838,89.307z"/>
		</g>
		<path style="fill:#6D3744;" d="M513.965,76.276c3.062,12.576,25.823,13.006,33.148,6.503c7.326-6.503,1.062-17.411-10.503-16.119
			C525.046,67.952,512.509,70.293,513.965,76.276z"/>
		<polyline style="fill:none;stroke:#81CDEF;stroke-miterlimit:10;" points="528.219,216.971 528.219,256.456 535.311,263.548 
			535.311,216.971 		"/>
		<path style="opacity:0.27;fill:#0E153F;" d="M503.441,221.456c55.844,0.215,74.973,48.68,74.973,48.68v-53.165h-74.128
			L503.441,221.456z"/>
		<path style="opacity:0.27;fill:#0E153F;" d="M539.738,316.377c-7.973,69.451-19.097,78.127-33.772,78.127l1.515,16.886h26.903
			L539.738,316.377z"/>
		<path style="opacity:0.27;fill:#0E153F;" d="M578.39,338.174c-0.699,50.949-29.717,58.802-29.717,58.802l1.754,14.413h26.903
			L578.39,338.174z"/>
	</g>
	<g>
		<path style="fill:#58AEDD;" d="M688.244,379.163c9.263-14.08,5.187-18.526,0-12.968c0,0,17.785-20.749,13.709-28.9
			c-4.076-8.151-18.896,20.074-18.896,20.074s16.91-42.305,9.752-48.604c-7.158-6.299-11.975,38.904-11.975,38.904
			s-10.374-58.542-21.49-57.801c-11.115,0.741,1.174,43.721,13.74,59.653c0,0-23.003-50.02-38.194-41.127
			c-15.191,8.892,11.116,41.259,22.972,48.974c0,0-12.227-10.811-15.191-5.994c-2.964,4.817,12.968,11.857,12.968,11.857
			s-5.708-1.853-7.3,3.335c-1.592,5.187,6.559,11.857,13.229,12.598C668.236,379.904,688.244,379.163,688.244,379.163z"/>
		<g style="opacity:0.27;">
			<path style="fill:#0E153F;" d="M684.071,377.886c1.051-2.806,1.555-5.816,1.476-8.812c-0.015-0.556-0.077-1.172-0.49-1.544
				c-0.592-0.533-1.544-0.259-2.209,0.181c-1.248,0.824-2.159,2.142-2.489,3.6c1.606-4.499,1.136-9.692-1.25-13.83
				c-0.722-1.252-2.285-2.536-3.434-1.658c-0.436,0.333-0.632,0.886-0.789,1.412c-0.638,2.138-0.994,4.36-1.055,6.59
				c0.255-8.123-2.382-16.308-7.331-22.755c-1.274-1.66-3.562-3.329-5.238-2.076c-0.601,0.449-0.92,1.175-1.177,1.879
				c-1.257,3.447-1.615,7.217-1.03,10.838c0.896,5.544,3.894,10.489,6.832,15.275c-0.861-3.76-3.071-7.196-6.134-9.54
				c-0.075,6.554,1.458,13.121,4.426,18.964c0.137-2.075-0.859-4.19-2.545-5.407c-0.337-0.243-0.728-0.46-1.143-0.436
				c-0.797,0.047-1.287,0.991-1.157,1.779c0.129,0.787,0.678,1.431,1.205,2.03c2.365,2.689,4.73,5.378,7.096,8.067"/>
		</g>
		<polygon style="fill:#333872;" points="697.833,376.635 683.893,437.905 659.393,437.905 656.593,422.365 648.343,376.635 		"/>
		<path style="opacity:0.27;fill:#0E153F;" d="M697.833,376.635l-13.94,61.27h-24.5l-2.8-15.54c0.61-0.02,27.13-1.33,33.24-45.73
			H697.833z"/>
	</g>
	<g>
		<circle style="fill:#434A8E;" cx="161.331" cy="341.432" r="34.334"/>
		<rect x="156.377" y="322.263" style="fill:#FFFEFF;" width="9.909" height="38.337"/>
		
			<rect x="156.377" y="322.263" transform="matrix(-1.836970e-16 1 -1 -1.836970e-16 502.7629 180.1011)" style="fill:#FFFEFF;" width="9.909" height="38.337"/>
	</g>
	<path style="opacity:0.13;fill:#0E153F;" d="M311.712,279.686C305.57,279.686,0,412.223,0,412.223V279.686H311.712z"/>
</g>
</svg>
