<svg xmlns="http://www.w3.org/2000/svg" width="128" height="128" viewBox="0 0 128 128">
  <title>NURSE</title>
  <g>
    <rect x="44.187" y="73.681" width="39.627" height="22.319" fill="#080c35"/>
    <path d="M44.187,56.186V71.148a19.813,19.813,0,0,0,39.626,0V56.186L71.389,46.928Z" fill="#f89cbb"/>
    <path d="M72.294,52.984S60.645,63.667,44.187,61.405V56.186A19.813,19.813,0,0,1,64,36.372h0A19.813,19.813,0,0,1,83.813,56.186v5.533S76.064,62.961,72.294,52.984Z" fill="#4c506d"/>
    <path d="M38.23,67.725a5.956,5.956,0,0,0,5.957,5.956V61.768A5.957,5.957,0,0,0,38.23,67.725Z" fill="#ef708b"/>
    <path d="M89.77,67.725a5.957,5.957,0,0,0-5.957-5.957V73.681A5.956,5.956,0,0,0,89.77,67.725Z" fill="#ef708b"/>
    <path d="M78.455,41.611c-.438.851-.763,1.389-.763,1.389A43.439,43.439,0,0,0,64,40.935,43.439,43.439,0,0,0,50.31,43a29.124,29.124,0,0,1-1.477-2.891c-.876-1.927-1.777-4.455-1.564-6.345C47.657,30.248,60.9,23.911,64,23.911s16.344,6.337,16.732,9.853C81,36.205,79.444,39.7,78.455,41.611Z" fill="#dee1f3"/>
    <polygon points="67.952 31.824 67.952 35.087 65.632 35.087 65.632 37.407 62.374 37.407 62.374 35.087 60.048 35.087 60.048 31.824 62.374 31.824 62.374 29.504 65.632 29.504 65.632 31.824 67.952 31.824" fill="#f8495d"/>
    <path d="M93.92,104.09H34.08A13.145,13.145,0,0,1,47.21,90.96H80.79A13.132,13.132,0,0,1,93.92,104.09Z" fill="#95edf7"/>
    <g>
      <circle cx="58.375" cy="69.664" r="1.939" fill="#ef708b"/>
      <circle cx="69.625" cy="69.664" r="1.939" fill="#ef708b"/>
    </g>
    <g>
      <path d="M48.99,99v5.09h-3.5V99a1.75,1.75,0,0,1,3.5,0Z" fill="#52e1f3"/>
      <path d="M82.51,99v5.09h-3.5V99a1.75,1.75,0,0,1,3.5,0Z" fill="#52e1f3"/>
    </g>
  </g>
</svg>
