<svg xmlns="http://www.w3.org/2000/svg" viewBox="0 0 32 32"><defs><style>.cls-1{fill:#d1e6e9;}.cls-2{fill:#30acc2;}.cls-3{fill:#68c7d3;}.cls-4{fill:#a1d8df;}</style></defs><title>Stethoscope</title><g id="Stethoscope"><path class="cls-1" d="M7,3H5A1,1,0,0,0,4,4v6H2V4A3,3,0,0,1,5,1H7A1,1,0,0,1,7,3Z"/><path class="cls-1" d="M18,10H16V4a1,1,0,0,0-1-1H13a1,1,0,0,1,0-2h2a3,3,0,0,1,3,3Z"/><path class="cls-2" d="M7,3H6V1H7A1,1,0,0,1,7,3Z"/><path class="cls-2" d="M13,3h1V1H13A1,1,0,0,0,13,3Z"/><path class="cls-3" d="M18,10c0,2.83-.62,3.36-3.27,8a4,4,0,0,1-3.47,2c-.35,0-.26-.33-.26,2H9V20a4,4,0,0,1-3.73-2C2.74,13.57,2,12.84,2,10H4c0,2.17.27,2.21,3,7a2,2,0,0,0,1.74,1c2.12,0,3.5.3,4.26-1,2.63-4.6,3-4.78,3-7Z"/><path class="cls-1" d="M25,18v4a2,2,0,0,1-2,2H11V22H9v2H7.5A3.5,3.5,0,1,0,11,27.5V26H23a4,4,0,0,0,4-4V18ZM9,27.5A1.5,1.5,0,1,1,7.5,26H9Z"/><circle class="cls-4" cx="26" cy="16" r="4"/><circle class="cls-2" cx="26" cy="16" r="2"/></g></svg>